
<svg width="750" height="260" xmlns="http://www.w3.org/2000/svg">
  <defs>
    <!-- 蓝黑渐变背景 -->
    <linearGradient id="grad" x1="0%" y1="0%" x2="100%" y2="100%">
      <stop offset="0%" style="stop-color:#0f2027;stop-opacity:1" />
      <stop offset="50%" style="stop-color:#203a43;stop-opacity:1" />
      <stop offset="100%" style="stop-color:#2c5364;stop-opacity:1" />
    </linearGradient>
    <filter id="shadow" x="-20%" y="-20%" width="140%" height="140%">
      <feDropShadow dx="0" dy="6" stdDeviation="10" flood-color="rgba(0,0,0,0.5)"/>
    </filter>
    <mask id="avatarMask">
      <circle cx="75" cy="130" r="60" fill="white"/>
    </mask>
  </defs>

  <!-- 背景卡片 -->
  <rect x="10" y="10" rx="20" ry="20" width="730" height="240" fill="url(#grad)" filter="url(#shadow)"/>

  <!-- 头像 -->
  <image href="https://raw.githubusercontent.com/jaxo4life/jaxo4life/main/assets/avatar.png" x="15" y="70" width="120" height="120" mask="url(#avatarMask)"/>

  <!-- 用户名和简介 -->
  <text x="160" y="115" font-size="28" fill="white" font-family="Fira Code, monospace" font-weight="bold">jaxo4life</text>
  <text x="160" y="145" font-size="16" fill="white" font-family="Fira Code, monospace">Full-stack &amp; Blockchain</text>

  <!-- 数据卡片 -->
  <g font-family="Fira Code, monospace" fill="white" font-weight="bold">
    <rect x="160" y="170" width="120" height="45" rx="10" ry="10" fill="rgba(255,255,255,0.15)"/>
    <text x="170" y="200" font-size="16">Repos: 34</text>

    <rect x="295" y="170" width="120" height="45" rx="10" ry="10" fill="rgba(255,255,255,0.15)"/>
    <text x="305" y="200" font-size="16">Stars: 15</text>

    <rect x="430" y="170" width="140" height="45" rx="10" ry="10" fill="rgba(255,255,255,0.15)"/>
    <text x="440" y="200" font-size="16">Followers: 0</text>

    <rect x="585" y="170" width="140" height="45" rx="10" ry="10" fill="rgba(255,255,255,0.15)"/>
    <text x="595" y="200" font-size="16">Contribs: 340</text>

    <rect x="430" y="220" width="295" height="30" rx="10" ry="10" fill="rgba(255,255,255,0.15)"/>
    <text x="440" y="242" font-size="14">Pinned Projects: 6</text>
  </g>
</svg>