
<svg width="750" height="250" xmlns="http://www.w3.org/2000/svg">
  <defs>
    <linearGradient id="grad" x1="0%" y1="0%" x2="100%" y2="100%">
      <stop offset="0%" style="stop-color:#74dcc4;stop-opacity:1" />
      <stop offset="100%" style="stop-color:#4597e9;stop-opacity:1" />
    </linearGradient>
    <filter id="shadow" x="-20%" y="-20%" width="140%" height="140%">
      <feDropShadow dx="0" dy="5" stdDeviation="10" flood-color="rgba(0,0,0,0.3)"/>
    </filter>
    <mask id="avatarMask">
      <rect width="120" height="120" rx="60" ry="60" fill="white"/>
    </mask>
  </defs>

  <!-- 背景 -->
  <rect x="10" y="10" rx="25" ry="25" width="730" height="230" fill="url(#grad)" filter="url(#shadow)"/>

  <!-- 头像 -->
  <image href="https://github.com/jaxo4life/jaxo4life/blob/main/assets/avatar.png" x="30" y="65" width="120" height="120" mask="url(#avatarMask)"/>

  <!-- 用户名和简介 -->
  <text x="170" y="100" font-size="30" fill="white" font-family="Fira Code" font-weight="bold">jaxo4life</text>
  <text x="170" y="135" font-size="16" fill="white" font-family="Fira Code">Full-stack &amp; Blockchain</text>

  <!-- 数据卡片 -->
  <g font-family="Fira Code" fill="white" font-weight="bold">
    <rect x="170" y="150" width="120" height="50" rx="12" ry="12" fill="rgba(255,255,255,0.2)"/>
    <text x="180" y="180" font-size="18">Repos: 34</text>

    <rect x="310" y="150" width="120" height="50" rx="12" ry="12" fill="rgba(255,255,255,0.2)"/>
    <text x="320" y="180" font-size="18">Stars: 15</text>

    <rect x="450" y="150" width="120" height="50" rx="12" ry="12" fill="rgba(255,255,255,0.2)"/>
    <text x="460" y="180" font-size="18">Followers: 0</text>

    <rect x="590" y="150" width="120" height="50" rx="12" ry="12" fill="rgba(255,255,255,0.2)"/>
    <text x="600" y="180" font-size="18">Contribs: 340</text>

    <rect x="450" y="205" width="260" height="35" rx="12" ry="12" fill="rgba(255,255,255,0.2)"/>
    <text x="460" y="230" font-size="16">Pinned Projects: 6</text>
  </g>
</svg>